<?xml version="1.0" encoding="utf-8"?>
<!-- Generator: Adobe Illustrator 23.0.1, SVG Export Plug-In . SVG Version: 6.00 Build 0)  -->
<svg version="1.1" id="Layer_1" xmlns="http://www.w3.org/2000/svg" xmlns:xlink="http://www.w3.org/1999/xlink" x="0px" y="0px"
	 viewBox="0 0 1000 1000" style="enable-background:new 0 0 1000 1000;" xml:space="preserve">
<style type="text/css">
	.st0{fill:#E09B4F;stroke:#2E3535;stroke-width:29.5162;stroke-linecap:round;stroke-linejoin:round;stroke-miterlimit:10;}
	
		.st1{opacity:0.25;fill:none;stroke:#424242;stroke-width:59.0324;stroke-linecap:round;stroke-linejoin:round;stroke-miterlimit:10;}
	.st2{fill:#B0EA78;stroke:#2E3535;stroke-width:29.5162;stroke-linecap:round;stroke-linejoin:round;stroke-miterlimit:10;}
	.st3{fill:none;stroke:#2E3535;stroke-width:29.5162;stroke-linecap:round;stroke-linejoin:round;stroke-miterlimit:10;}
	.st4{fill:#FFC988;stroke:#2E3535;stroke-width:29.5162;stroke-linecap:round;stroke-linejoin:round;stroke-miterlimit:10;}
	.st5{fill:#5098EF;stroke:#2E3535;stroke-width:29.5162;stroke-linecap:round;stroke-linejoin:round;stroke-miterlimit:10;}
</style>
<g>
	<path class="st0" d="M826.89,673.66c0,112.31-91.04,203.35-203.36,203.35c-112.31,0-203.34-91.04-203.34-203.35
		c0-112.31,91.03-203.34,203.34-203.34C735.84,470.32,826.89,561.34,826.89,673.66z"/>
	<path class="st1" d="M623.53,499.83c95.86,0,173.84,77.98,173.84,173.83s-77.98,173.83-173.84,173.83"/>
	<path class="st2" d="M830.52,153.52c15.49,50.98,4.29,108.58-34.67,150.38c-38.97,41.77-95.66,56.96-147.58,45.05
		c-15.5-50.99-4.32-108.6,34.65-150.39C721.89,156.77,778.55,141.6,830.52,153.52z"/>
	<path class="st1" d="M806.24,179.54c5.73,37.51-5.83,76.18-31.98,104.23c-23.82,25.52-56.22,39.59-91.23,39.59
		c-3.5,0-7-0.15-10.48-0.44"/>
	<path class="st2" d="M312.2,70.06c-16.42,67.44,2.39,141.49,56.11,192.97c53.72,51.44,128.53,67.02,195.19,47.72
		c16.42-67.44-2.38-141.5-56.1-192.97C453.67,66.33,378.88,50.76,312.2,70.06z"/>
	<path class="st1" d="M538.12,286.44c-10.2,1.85-20.57,2.79-30.97,2.79l0,0c-44.37,0-86.42-16.88-118.41-47.51
		c-39.72-38.07-58.53-93.23-51.13-147.34"/>
	<path class="st3" d="M427.04,160.12c0,0,193.73,145.47,193.73,310.19"/>
	<path class="st3" d="M726.71,251.22c0,0-105.94,85.92-105.94,219.09"/>
	<path class="st4" d="M927.65,579.38c-30.21-20.45-71.18-12.48-91.57,17.66l-42.37,62.6c-0.6,1.17-1.13,2.37-1.87,3.49l-60.86,89.94
		c-6.38,9.44-17.06,15.1-28.47,15.1H482.24c-18.97,0-34.37-15.37-34.37-34.37c0-18.98,15.39-34.36,34.37-34.36h159.15
		c33.95-2.71,60.73-30.79,60.73-65.44c0-36.43-29.5-65.94-65.94-65.94H368.11c-21.88,0-42.35,10.86-54.62,28.99l-97.17,143.59
		h-33.91v198.29h544.72c21.91,0,42.36-10.87,54.62-28.99L945.3,670.97C965.73,640.81,957.83,599.8,927.65,579.38z"/>
	<line class="st1" x1="727.15" y1="909.41" x2="211.94" y2="909.41"/>
	<path class="st1" d="M640.05,669.92H482.24c-35.22,0-63.88,28.65-63.88,63.87"/>
	<path class="st5" d="M182.42,938.92V737.36c0-38.75-31.41-70.17-70.16-70.17c-38.76,0-70.17,31.41-70.17,70.17v201.56H182.42z"/>
	<path class="st1" d="M112.26,696.71c22.41,0,40.64,18.24,40.64,40.65v172.05"/>
</g>
</svg>
