<svg id="Capa_1" enable-background="new 0 0 512 512" height="512" viewBox="0 0 512 512" width="512" xmlns="http://www.w3.org/2000/svg"><g><g><g><path d="m400.465 142.086c-5.088 5.088-5.856 13.052-1.864 19.039 18.108 27.16 28.669 59.783 28.669 94.875 0 83.045-59.105 152.283-137.544 167.948-7.048 1.408-12.124 7.589-12.124 14.776v47.809c0 9.27 8.288 16.343 17.445 14.898 118.689-18.734 209.453-121.477 209.453-245.43 0-54.501-17.556-104.896-47.31-145.859-5.467-7.527-16.336-8.444-22.913-1.866z" fill="#fe646f"/><path d="m234.397 438.724c0-7.187-5.076-13.368-12.124-14.776-78.438-15.664-137.543-84.902-137.543-167.947s59.105-152.283 137.544-167.948c7.048-1.408 12.124-7.589 12.124-14.776v-47.809c0-9.27-8.288-16.343-17.445-14.898-118.689 18.734-209.453 121.478-209.453 245.431s90.764 226.696 209.452 245.43c9.157 1.445 17.445-5.627 17.445-14.898z" fill="#ffe177"/><path d="m230.6 496.541c-3.28 3.69-8.31 5.73-13.64 4.89-118.69-18.731-209.46-121.481-209.46-245.43s90.77-226.7 209.46-245.43c5.33-.84 10.36 1.21 13.64 4.89-106.97 27.719-185.96 124.91-185.96 240.54s78.99 212.82 185.96 240.54z" fill="#ffd15b"/><path d="m401.878 54.825c-30.985-22.507-67.368-38.028-106.843-44.257-9.152-1.444-17.433 5.634-17.433 14.899v47.808c0 7.208 5.109 13.374 12.177 14.789 22.196 4.441 42.84 13.175 61.036 25.295 6.012 4.005 13.995 3.281 19.102-1.827l33.806-33.806c6.572-6.571 5.674-17.44-1.845-22.901z" fill="#01d0fb"/></g><g><path d="m264.886 305.848h-31.936c-45.046 0-81.563-36.517-81.563-81.563v-31.935c0-10.697 8.671-19.368 19.368-19.368h31.936c45.046 0 81.563 36.517 81.563 81.563v31.936c0 10.696-8.672 19.367-19.368 19.367z" fill="#9be69d"/><path d="m257.834 305.842h-24.89c-45.044 0-81.556-36.512-81.556-81.557v-31.941c0-10.694 8.673-19.367 19.367-19.367h24.89c-10.706 0-19.367 8.673-19.367 19.367v31.941c-.001 45.045 36.511 81.557 81.556 81.557z" fill="#6fd7a3"/><path d="m227.738 254.551v106.734c0 10.258 8.316 18.574 18.574 18.574 10.258 0 18.574-8.316 18.574-18.574v-55.438h14.161c45.049 0 81.568-36.519 81.568-81.568v-31.929c0-10.696-8.671-19.367-19.367-19.367h-31.941c-45.049 0-81.569 36.519-81.569 81.568z" fill="#9be69d"/><path d="m328.227 172.983c-45.044 0-81.568 36.512-81.568 81.557v125.32h-.347c-10.258 0-18.574-8.316-18.574-18.574v-106.747c0-45.042 36.514-81.557 81.557-81.557h18.932z" fill="#6fd7a3"/></g></g><g><path d="m463.258 105.732c-3.913-5.386-9.955-8.774-16.576-9.295-6.582-.52-13.036 1.862-17.705 6.531l-33.805 33.814c-7.588 7.573-8.771 19.562-2.812 28.509 17.932 26.893 27.41 58.259 27.41 90.709 0 77.83-55.308 145.371-131.51 160.596-10.522 2.104-18.16 11.409-18.16 22.125v12.38c0 4.142 3.357 7.5 7.5 7.5s7.5-3.358 7.5-7.5v-12.38c0-3.59 2.566-6.709 6.101-7.416 39.943-7.981 76.34-29.742 102.484-61.275 26.494-31.956 41.085-72.452 41.085-114.03 0-35.422-10.35-69.666-29.928-99.027-2.005-3.011-1.615-7.038.932-9.58l33.811-33.819c1.583-1.583 3.685-2.36 5.921-2.183 2.273.179 4.269 1.3 5.617 3.157 30.013 41.332 45.877 90.246 45.877 141.452 0 57.746-20.739 113.601-58.396 157.275-37.269 43.225-88.666 71.901-144.727 80.748-2.226.352-4.4-.26-6.118-1.727-1.715-1.465-2.659-3.513-2.659-5.766v-.51c0-4.142-3.357-7.5-7.5-7.5s-7.5 3.358-7.5 7.5v.51c0 6.615 2.886 12.874 7.917 17.171 4.124 3.523 9.324 5.416 14.663 5.416 1.176 0 2.359-.092 3.539-.279 59.56-9.398 114.161-39.858 153.745-85.768 40.005-46.397 62.036-105.73 62.036-167.07 0-54.393-16.854-106.355-48.742-150.268z"/><path d="m223.739 416.595c-76.201-15.225-131.509-82.765-131.509-160.595s55.308-145.371 131.5-160.594c10.528-2.09 18.17-11.396 18.17-22.126v-47.81c0-6.608-2.882-12.862-7.905-17.158-5.032-4.302-11.671-6.182-18.215-5.151-31.672 5-61.741 15.778-89.373 32.034-3.57 2.101-4.762 6.697-2.661 10.268 2.1 3.569 6.696 4.761 10.267 2.661 26.004-15.298 54.301-25.441 84.103-30.146 2.234-.35 4.413.264 6.131 1.734 1.712 1.463 2.654 3.508 2.654 5.757v47.81c0 3.595-2.562 6.713-6.101 7.416-83.19 16.621-143.57 90.348-143.57 175.305 0 41.578 14.591 82.075 41.085 114.029 26.145 31.533 62.541 53.294 102.483 61.275 3.535.707 6.102 3.826 6.102 7.416v47.81c0 2.253-.944 4.301-2.659 5.766-1.716 1.466-3.889 2.077-6.122 1.726-56.057-8.846-107.454-37.522-144.723-80.747-37.657-43.675-58.396-99.53-58.396-157.275 0-73.857 33.187-142.621 91.05-188.661 3.241-2.579 3.778-7.297 1.199-10.539-2.58-3.241-7.299-3.777-10.539-1.2-61.46 48.903-96.71 121.946-96.71 200.4 0 61.34 22.031 120.673 62.036 167.07 39.585 45.91 94.186 76.37 153.741 85.768 1.182.187 2.365.279 3.543.279 5.34 0 10.539-1.893 14.663-5.416 5.031-4.298 7.917-10.557 7.917-17.171v-47.81c0-10.716-7.637-20.021-18.161-22.125z"/><path d="m288.309 95.418c20.909 4.184 40.541 12.321 58.349 24.184 3.839 2.557 8.233 3.807 12.6 3.807 5.839 0 11.628-2.236 15.965-6.573l33.807-33.807c4.673-4.674 7.056-11.133 6.536-17.721-.521-6.613-3.902-12.646-9.277-16.55 0 0 0 0-.001 0-32.479-23.592-70.545-39.359-110.083-45.598-6.535-1.03-13.162.843-18.19 5.14s-7.912 10.555-7.912 17.167v47.808c0 10.72 7.657 20.032 18.206 22.143zm-3.206-69.95c0-2.252.943-4.3 2.657-5.764 1.398-1.195 3.101-1.823 4.888-1.823.403 0 .811.032 1.22.096 37.209 5.872 73.034 20.712 103.604 42.917 1.847 1.341 2.962 3.328 3.141 5.592.177 2.24-.602 4.348-2.19 5.937l-33.807 33.807c-2.542 2.542-6.597 2.916-9.641.889-19.445-12.953-40.884-21.838-63.722-26.408-3.563-.712-6.149-3.839-6.149-7.434v-47.809z"/><path d="m272.39 313.35h6.66c49.108 0 89.061-39.957 89.061-89.07v-31.93c0-14.816-12.05-26.87-26.86-26.87h-31.94c-19.5 0-38.136 6.435-53.303 17.758-15.336-11.479-34.031-17.758-53.316-17.758h-31.939c-14.811 0-26.86 12.054-26.86 26.87v31.94c0 44.516 33.009 81.928 76.35 88.128v48.872c0 14.375 11.694 26.07 26.069 26.07 6.954 0 13.502-2.709 18.444-7.637 4.924-4.924 7.636-11.471 7.636-18.433v-47.94zm-15-7.5v55.44c0 2.956-1.151 5.735-3.234 7.818-2.104 2.097-4.89 3.251-7.846 3.251-6.104 0-11.069-4.966-11.069-11.07v-106.739c0-2.078.085-4.12.252-6.069.354-4.127-2.705-7.759-6.832-8.113-4.121-.353-7.76 2.705-8.113 6.832-.203 2.374-.307 4.847-.307 7.351v42.694c-34.981-6.052-61.35-36.667-61.35-72.953v-31.94c0-6.545 5.32-11.87 11.86-11.87h31.939c15.003 0 29.576 4.572 41.834 12.975-4.871 5.154-9.17 10.922-12.75 17.238-2.042 3.604-.776 8.181 2.827 10.223 3.604 2.043 8.181.776 10.224-2.827 13.146-23.197 37.855-37.608 64.484-37.608h31.94c6.54 0 11.86 5.325 11.86 11.87v31.93c0 40.842-33.224 74.07-74.061 74.07h-14.16c-4.141-.003-7.498 3.355-7.498 7.497z"/></g></g></svg>