<?xml version="1.0" encoding="UTF-8"?>
<svg id="Filled_Color" data-name="Filled Color" xmlns="http://www.w3.org/2000/svg" viewBox="0 0 64 64">
  <defs>
    <style>
      .cls-1 {
        fill: #2799ff;
      }

      .cls-2 {
        fill: #005cbf;
      }

      .cls-3 {
        fill: #bfd9ea;
      }

      .cls-4 {
        fill: #e2eff7;
      }
    </style>
  </defs>
  <g>
    <rect class="cls-3" x="45.5251" y="14" width="4" height="11" rx="2" ry="2" transform="translate(27.7084 -27.8939) rotate(45)"/>
    <rect class="cls-3" x="14.4749" y="14" width="4" height="11" rx="2" ry="2" transform="translate(41.913 21.6391) rotate(135)"/>
    <path class="cls-4" d="M42,14.3431v-6.3431H22v6.3431c0,1.0609-.4214,2.0783-1.1716,2.8284l-5.0711,5.0711c-1.1252,1.1252-1.7574,2.6513-1.7574,4.2426v29.5147c0,2.2091,1.7909,4,4,4h28c2.2091,0,4-1.7909,4-4V26.4853c0-1.5913-.6321-3.1174-1.7574-4.2426l-5.0711-5.0711c-.7501-.7501-1.1716-1.7676-1.1716-2.8284Z"/>
    <path class="cls-4" d="M50,54v2c0,2.21-1.79,4-4,4H18c-2.21,0-4-1.79-4-4v-2H50Z"/>
    <rect class="cls-1" x="14" y="27" width="36" height="27"/>
    <rect class="cls-3" x="19" y="4" width="26" height="4" rx="2" ry="2"/>
    <path class="cls-2" d="M36.2857,42.2143c0,2.3657-1.92,4.2857-4.2857,4.2857s-4.2857-1.92-4.2857-4.2857c0-3.6943,4.2857-7.7143,4.2857-7.7143,0,0,4.2857,4.02,4.2857,7.7143Z"/>
  </g>
  <g>
    <path d="M53,17.0195c0-.7959-.3135-1.5469-.8828-2.1162-1.168-1.168-3.0664-1.168-4.2344,0l-2.7831,2.7823-1.2208-1.2208c-.5664-.5664-.8789-1.3203-.8789-2.1221v-5.3428c1.6543,0,3-1.3457,3-3s-1.3457-3-3-3H21c-1.6543,0-3,1.3457-3,3s1.3457,3,3,3v5.3428c0,.8018-.3125,1.5557-.8789,2.1221l-1.2208,1.2208-2.7831-2.7823c-1.168-1.168-3.0664-1.168-4.2344,0-.5693,.5693-.8828,1.3203-.8828,2.1162,0,.8018,.3135,1.5566,.8828,2.1279l2.7972,2.7964c-1.0841,1.2662-1.68,2.8567-1.68,4.5415v29.5146c0,2.7568,2.2432,5,5,5h28c2.7568,0,5-2.2432,5-5V26.4854c0-1.683-.5945-3.2719-1.6763-4.5374l2.7944-2.8015c.5684-.5703,.8818-1.3252,.8818-2.127ZM20,6c0-.5518,.4482-1,1-1h22c.5518,0,1,.4482,1,1s-.4482,1-1,1H21c-.5518,0-1-.4482-1-1Zm1.5352,11.8789c.9443-.9443,1.4648-2.2002,1.4648-3.5361v-5.3428h18v5.3428c0,1.3359,.5205,2.5918,1.4648,3.5361l5.0703,5.0703c.8278,.8278,1.3062,1.9001,1.4174,3.0508H15.0474c.1113-1.1506,.5896-2.223,1.4174-3.0508l.2932-.2932c.0088-.0082,.0204-.0107,.0291-.0193s.0111-.0203,.0193-.0291l4.7288-4.7288Zm-6.5352,10.1211H49v25H15V28Zm-2-10.9805c0-.2617,.1055-.5107,.2969-.7021,.3887-.3867,1.0176-.3867,1.4062,0l2.7831,2.7823-1.4111,1.4111-2.7772-2.7765c-.1924-.1924-.2979-.4463-.2979-.7148ZM46,59H18c-1.6543,0-3-1.3457-3-3v-1H49v1c0,1.6543-1.3457,3-3,3Zm4.7021-41.2656l-2.7734,2.7803-1.415-1.415,2.7831-2.7823c.3887-.3867,1.0176-.3867,1.4062,0,.1914,.1914,.2969,.4404,.2969,.7021,0,.2686-.1055,.5225-.2979,.7148Z"/>
    <path d="M32.6836,33.7705c-.3828-.3613-.9844-.3613-1.3672,0-.1885,.1768-4.6025,4.3633-4.6025,8.4434,0,2.915,2.3711,5.2861,5.2861,5.2861s5.2861-2.3711,5.2861-5.2861c0-4.0801-4.4141-8.2666-4.6025-8.4434Zm-.6836,11.7295c-1.8115,0-3.2861-1.4746-3.2861-3.2861,0-2.3789,2.1553-5.0439,3.29-6.2822,1.3027,1.4219,3.2822,4.0586,3.2822,6.2822,0,1.8115-1.4746,3.2861-3.2861,3.2861Z"/>
  </g>
</svg>