<?xml version="1.0" encoding="utf-8"?>
<!-- Generator: Adobe Illustrator 23.0.1, SVG Export Plug-In . SVG Version: 6.00 Build 0)  -->
<svg version="1.1" id="Layer_1" xmlns="http://www.w3.org/2000/svg" xmlns:xlink="http://www.w3.org/1999/xlink" x="0px" y="0px"
	 viewBox="0 0 1000 1000" style="enable-background:new 0 0 1000 1000;" xml:space="preserve">
<style type="text/css">
	.st0{fill:#FFC988;stroke:#2E3535;stroke-width:29.5162;stroke-linecap:round;stroke-linejoin:round;stroke-miterlimit:10;}
	
		.st1{opacity:0.25;fill:none;stroke:#424242;stroke-width:59.0324;stroke-linecap:round;stroke-linejoin:round;stroke-miterlimit:10;}
	.st2{fill:#E09B4F;stroke:#2E3535;stroke-width:29.5162;stroke-linecap:round;stroke-linejoin:round;stroke-miterlimit:10;}
	.st3{fill:#FFFFFF;stroke:#2E3535;stroke-width:29.5162;stroke-linecap:round;stroke-linejoin:round;stroke-miterlimit:10;}
	.st4{fill:#EDCF51;stroke:#2E3535;stroke-width:29.5162;stroke-linecap:round;stroke-linejoin:round;stroke-miterlimit:10;}
</style>
<g>
	<path class="st0" d="M896.04,331.63H511.1H126.16c76.99,181.03,0,366.5,0,448.05c0,107,87.08,177.1,194.49,177.1H511.1h190.44
		c107.42,0,194.49-70.1,194.49-177.1C896.04,698.13,819.05,512.66,896.04,331.63z"/>
	<path class="st1" d="M853.82,361.15c-39.27,126.48-15.49,251.28,0.79,336.68c6.39,33.52,11.91,62.46,11.91,81.85
		c0,85.51-69.38,147.58-164.98,147.58H320.66c-95.6,0-164.98-62.07-164.98-147.58"/>
	<path class="st2" d="M826.09,212.74c-32.86,0-623.87,0-656.73,0c-59.77,0-108.23,48.45-108.23,108.22
		c0,59.78,48.45,108.24,108.23,108.24c32.86,0,62.24-14.7,82.09-37.82c19.85,23.12,49.23,37.82,82.09,37.82s62.24-14.7,82.09-37.82
		c19.85,23.12,49.23,37.82,82.09,37.82c32.86,0,62.24-14.7,82.09-37.82c19.85,23.12,49.23,37.82,82.09,37.82
		c32.86,0,62.24-14.7,82.09-37.82c19.85,23.12,49.23,37.82,82.09,37.82c59.77,0,108.23-48.45,108.23-108.24
		C934.32,261.2,885.87,212.74,826.09,212.74z"/>
	<path class="st1" d="M216.74,242.26h609.36c43.4,0,78.71,35.31,78.71,78.7c0,43.41-35.31,78.72-78.71,78.72
		c-22.91,0-44.67-10.03-59.7-27.53L744,346.09l-22.39,26.07c-15.03,17.5-36.79,27.53-59.7,27.53c-22.91,0-44.67-10.03-59.7-27.53
		l-22.39-26.07l-22.39,26.07c-15.03,17.5-36.79,27.53-59.7,27.53c-22.91,0-44.67-10.03-59.7-27.53l-22.39-26.07l-22.39,26.07
		c-15.03,17.5-36.79,27.53-59.7,27.53"/>
	<polygon class="st3" points="441.61,573.64 426.24,551.5 357.06,568.71 357.06,619.87 402.26,619.87 426.39,673.72 441.61,688.64 
		441.61,747.05 487.73,747.05 487.89,673.72 573.36,673.72 592.27,699.69 592.27,747.05 638.39,747.05 638.39,673.72 638.39,603.16 
		608.87,573.64 	"/>
	<path class="st4" d="M796.45,212.74c-10.59-53.44-57.7-93.72-114.25-93.72c-17.06,0-33.22,3.76-47.82,10.35
		C609.39,76.42,555.66,39.7,493.24,39.7c-61.24,0-114.1,35.32-139.7,86.63c-12.57-4.64-26.1-7.31-40.3-7.31
		c-56.55,0-103.65,40.28-114.25,93.72H796.45z"/>
	<path class="st1" d="M493.24,69.21c48.66,0,93.59,28.56,114.45,72.75l12.38,26.24l26.45-11.93c11.39-5.13,23.39-7.74,35.69-7.74
		c27.98,0,53.45,13.45,69.49,34.69"/>
</g>
</svg>
