<?xml version="1.0" encoding="utf-8"?>
<!-- Generator: Adobe Illustrator 23.0.1, SVG Export Plug-In . SVG Version: 6.00 Build 0)  -->
<svg version="1.1" id="Layer_1" xmlns="http://www.w3.org/2000/svg" xmlns:xlink="http://www.w3.org/1999/xlink" x="0px" y="0px"
	 viewBox="0 0 1000 1000" style="enable-background:new 0 0 1000 1000;" xml:space="preserve">
<style type="text/css">
	.st0{fill:#E09B4F;stroke:#2E3535;stroke-width:29.5162;stroke-linecap:round;stroke-linejoin:round;stroke-miterlimit:10;}
	
		.st1{opacity:0.25;fill:none;stroke:#424242;stroke-width:59.0324;stroke-linecap:round;stroke-linejoin:round;stroke-miterlimit:10;}
	.st2{fill:#FFC988;stroke:#2E3535;stroke-width:29.5162;stroke-linecap:round;stroke-linejoin:round;stroke-miterlimit:10;}
	.st3{fill:none;stroke:#2E3535;stroke-width:29.5162;stroke-linecap:round;stroke-linejoin:round;stroke-miterlimit:10;}
</style>
<g>
	<g>
		<g>
			<g>
				<path class="st0" d="M943.22,367.85c0,118.37-95.96,214.34-214.33,214.34c-118.39,0-214.34-95.97-214.34-214.34
					c0-118.38,95.95-326.18,214.34-326.18C847.26,41.68,943.22,249.47,943.22,367.85z"/>
				<path class="st1" d="M912.69,413.99c-20.65,82.25-95.24,143.34-183.8,143.34"/>
				<polyline class="st0" points="928.93,275.86 891.65,311.92 853.91,275.86 816.63,311.92 778.58,275.86 741.31,314.26 				"/>
			</g>
			<g>
				<path class="st0" d="M484.2,367.85c0,118.37-95.96,214.34-214.34,214.34c-118.37,0-214.33-95.97-214.33-214.34
					c0-118.38,95.96-326.18,214.33-326.18C388.24,41.68,484.2,249.47,484.2,367.85z"/>
				<path class="st1" d="M453.67,413.99c-20.65,82.25-95.24,143.34-183.81,143.34"/>
				<polyline class="st0" points="469.91,275.86 432.63,311.92 394.9,275.86 357.62,311.92 319.56,275.86 282.29,314.26 				"/>
			</g>
		</g>
		<g>
			<path class="st2" d="M759.13,709.57c0,136.11-110.34,246.45-246.44,246.45c-136.1,0-246.44-110.34-246.44-246.45
				c0-136.09,110.34-375,246.44-375C648.79,334.56,759.13,573.47,759.13,709.57z"/>
			<path class="st1" d="M724.03,762.62c-23.75,94.59-109.51,164.82-211.34,164.82"/>
			<polyline class="st3" points="742.7,603.81 699.83,645.29 656.45,603.81 613.59,645.29 569.84,603.81 526.98,647.96 			"/>
		</g>
	</g>
	<polyline class="st1" points="919.83,314.18 891.65,341.44 853.91,305.38 816.63,341.44 778.58,305.38 741.31,343.77 	"/>
	<polyline class="st1" points="457.19,317.67 432.63,341.44 394.9,305.38 357.62,341.44 319.56,305.38 282.29,343.77 	"/>
	<polyline class="st1" points="730.5,645.14 699.83,674.81 656.45,633.33 613.59,674.81 569.84,633.33 526.98,677.47 	"/>
</g>
</svg>
