<?xml version="1.0" encoding="utf-8"?>
<!-- Generator: Adobe Illustrator 23.0.1, SVG Export Plug-In . SVG Version: 6.00 Build 0)  -->
<svg version="1.1" id="Layer_1" xmlns="http://www.w3.org/2000/svg" xmlns:xlink="http://www.w3.org/1999/xlink" x="0px" y="0px"
	 viewBox="0 0 1000 1000" style="enable-background:new 0 0 1000 1000;" xml:space="preserve">
<style type="text/css">
	.st0{fill:#EDCF51;stroke:#2E3535;stroke-width:29.5162;stroke-linecap:round;stroke-linejoin:round;stroke-miterlimit:10;}
	
		.st1{opacity:0.25;fill:none;stroke:#424242;stroke-width:59.0324;stroke-linecap:round;stroke-linejoin:round;stroke-miterlimit:10;}
	.st2{fill:#FFC988;stroke:#2E3535;stroke-width:29.5162;stroke-linecap:round;stroke-linejoin:round;stroke-miterlimit:10;}
	.st3{fill:#E09B4F;stroke:#2E3535;stroke-width:29.5162;stroke-linecap:round;stroke-linejoin:round;stroke-miterlimit:10;}
	.st4{fill:none;stroke:#2E3535;stroke-width:29.5162;stroke-linecap:round;stroke-linejoin:round;stroke-miterlimit:10;}
</style>
<g>
	<path class="st0" d="M637.34,795.76c0.06-4.78,0.4-9.44,0.4-14.24c0-299.18-133.14-541.73-297.35-541.73
		c-164.21,0-297.34,242.54-297.34,541.73c0,4.8,0.32,9.46,0.39,14.24H637.34z"/>
	<path class="st1" d="M340.39,269.31c71.25,0,137.09,56.5,185.66,146.86c-78.81,108.84-92.9,247.05-92.9,340.24H287.16"/>
	<path class="st2" d="M957.91,795.76c0.07-3.99,0.33-7.88,0.33-11.89c0-249.72-111.12-452.15-248.18-452.15
		S461.87,534.15,461.87,783.87c0,4.01,0.29,7.9,0.33,11.89H957.91z"/>
	<path class="st1" d="M710.06,361.23c115.47,0,213.49,183.71,218.46,405.01H491.59"/>
	<g>
		<rect x="199.22" y="198.63" class="st3" width="43.08" height="474.61"/>
	</g>
	<line class="st4" x1="220.74" y1="673.24" x2="220.74" y2="795.76"/>
	<path class="st4" d="M154.31,795.76v-93c0-16.23,13.29-29.52,29.52-29.52h73.82c16.23,0,29.52,13.29,29.52,29.52v93"/>
	<line class="st1" x1="732.78" y1="625.83" x2="701.14" y2="657.43"/>
	<line class="st1" x1="603.01" y1="631.06" x2="571.39" y2="662.66"/>
	<line class="st1" x1="691.61" y1="490.54" x2="659.98" y2="522.17"/>
	<line class="st1" x1="371.99" y1="394.93" x2="340.39" y2="426.56"/>
	<line class="st1" x1="356.2" y1="525.01" x2="324.59" y2="556.62"/>
</g>
</svg>
